# File exported by Houdini 15.5.565 (www.sidefx.com)
# 30 points
# 180 vertices
# 60 primitives
# Bounds: [-1.029248, -1.02456522, -0.0993957147] to [0.991968691, 0.976733506, 0.0931276903]
g 
v 0.991968691 0.0620596409 -0.0458166599
v 0.937739372 0.0547417291 -0.0883093402
v 0.928418398 0.0532331504 -0.0196737498
v 0.769069076 0.584676802 -0.0670049861
v 0.71585983 0.544380844 -0.0855794549
v 0.73007077 0.554251492 -0.0184928067
v 0.344832271 0.912134647 -0.0634917691
v 0.318469405 0.848438978 -0.0565734878
v 0.337695688 0.884254336 -0.000469900668
v -0.24675858 0.976733506 -0.0167114828
v -0.233418301 0.915965199 0.0137720276
v -0.24225457 0.972854137 0.0523150638
v -0.850654423 0.626566172 -0.0196852181
v -0.81204617 0.599068344 0.0308447368
v -0.865537822 0.640185177 0.0465945601
v -0.985144913 -0.00690649962 0.0105446465
v -0.961095273 -0.00858697202 0.0754968897
v -1.029248 -0.012530243 0.0636792704
v -0.767748773 -0.531273186 -0.0662384927
v -0.770834625 -0.533390462 0.00294239819
v -0.820031047 -0.564191282 -0.03488639
v -0.354633838 -0.959688544 0.0305119902
v -0.36567843 -0.987207472 0.0931276903
v -0.378280044 -1.02456522 0.0361575335
v 0.35869053 -0.865889013 -0.0371814035
v 0.381946176 -0.913139164 0.00783636607
v 0.381564051 -0.927173018 -0.0600083545
v 0.84502995 -0.497168779 -0.0514661968
v 0.902820528 -0.530121922 -0.0321184956
v 0.887936831 -0.522893429 -0.0993957147
vt 0 0.149166241 0
vt 0.0136599718 0.147322908 0
vt 0.0695498213 0.270659447 0
vt 0.833962023 0.544973314 0
vt 0.851250768 0.544593334 0
vt 0.851548314 0.670796216 0
vt 0.682577074 0.654618919 0
vt 0.698584974 0.656842232 0
vt 0.642438114 0.788485706 0
vt 0.0561467968 0.28080973 0
vt 0.0695498213 0.270659447 0
vt 0.169649586 0.347249478 0
vt 0.95983237 0.825874448 0
vt 0.963411987 0.842773139 0
vt 0.864575505 0.847312927 0
vt 0.632614791 0.7808218 0
vt 0.642438114 0.788485706 0
vt 0.535575986 0.870969951 0
vt 0.163008973 0.363293976 0
vt 0.169649586 0.347249478 0
vt 0.30866608 0.364258856 0
vt 0.859732568 0.833180845 0
vt 0.864575505 0.847312927 0
vt 0.718490303 0.860609055 0
vt 0.303085774 0.964219928 0
vt 0.30488345 0.980094671 0
vt 0.155865997 0.968311071 0
vt 0.312026441 0.379565954 0
vt 0.30866608 0.364258856 0
vt 0.454418272 0.284434825 0
vt 0.200463727 0.888276756 0
vt 0.198237941 0.902606726 0
vt 0.0412374064 0.818809807 0
vt 0.157000527 0.9509238 0
vt 0.155865997 0.968311071 0
vt 0.00374902016 0.969060123 0
vt 0.746907055 0.805969179 0
vt 0.73417896 0.799042702 0
vt 0.722931385 0.645978749 0
vt 0.0547115654 0.808452785 0
vt 0.0412374064 0.818809807 0
vt 0 0.654395521 0
vt 0.806960642 0.694553137 0
vt 0.790265203 0.691122651 0
vt 0.797879875 0.531555474 0
vt 0.739292383 0.646402001 0
vt 0.722931385 0.645978749 0
vt 0.741207361 0.513784528 0
vt 0.0171671771 0.655388832 0
vt 0 0.654395521 0
vt 0.0527002327 0.515436113 0
vt 0.811264098 0.53013885 0
vt 0.797879875 0.531555474 0
vt 0.778538823 0.399471313 0
vt 0.758633494 0.51431787 0
vt 0.741207361 0.513784528 0
vt 0.718490303 0.399471313 0
vt 0.0650924519 0.523194611 0
vt 0.0527002327 0.515436113 0
vt 0.163974106 0.399471253 0
vt 0.914745331 0.115964852 0
vt 0.901575804 0.124256685 0
vt 0.797515094 0.0163419638 0
vt 0.46344623 0.906647682 0
vt 0.460664183 0.89087528 0
vt 0.648985386 0.912359536 0
vt 0.477497846 0.339890182 0
vt 0.474323601 0.325539798 0
vt 0.665722847 0.301316291 0
vt 0.803471446 0 0
vt 0.797515094 0.0163419638 0
vt 0.617833912 0.0399693847 0
vt 0.539066792 0.423098683 0
vt 0.544924676 0.411196738 0
vt 0.676129222 0.507676005 0
vt 0.665819049 0.318405896 0
vt 0.665722847 0.301316291 0
vt 0.793274462 0.291394919 0
vt 0.61207217 0.0245323889 0
vt 0.617833912 0.0399693847 0
vt 0.495328516 0.132847339 0
vt 0.661572158 0.515976667 0
vt 0.676129222 0.507676005 0
vt 0.698584974 0.656842232 0
vt 0.871453643 0.543099999 0
vt 0.888400316 0.544920802 0
vt 0.885607719 0.690422893 0
vt 0.484520584 0.12636748 0
vt 0.495328516 0.132847339 0
vt 0.474323571 0.27148959 0
vt 0.661572158 0.515976667 0
vt 0.698584974 0.656842232 0
vt 0.682577074 0.654618919 0
vt 0.831169426 0.399471253 0
vt 0.851250768 0.544593334 0
vt 0.833962023 0.544973314 0
vt 0.0224557761 0 0
vt 0.0136599718 0.147322908 0
vt 0 0.149166241 0
vt 0.495328516 0.132847339 0
vt 0.484520584 0.12636748 0
vt 0.61207217 0.0245323889 0
vt 0.793274462 0.291394919 0
vt 0.797023535 0.308341593 0
vt 0.665819049 0.318405896 0
vt 0.676129222 0.507676005 0
vt 0.661572158 0.515976667 0
vt 0.539066792 0.423098683 0
vt 0.617833912 0.0399693847 0
vt 0.61207217 0.0245323889 0
vt 0.803471446 0 0
vt 0.665722847 0.301316291 0
vt 0.665819049 0.318405896 0
vt 0.477497846 0.339890182 0
vt 0.544924676 0.411196738 0
vt 0.539066792 0.423098683 0
vt 0.35938555 0.399471283 0
vt 0.797515094 0.0163419638 0
vt 0.803471446 0 0
vt 0.914745331 0.115964852 0
vt 0.879820287 0.399471253 0
vt 0.894170642 0.408881426 0
vt 0.871453583 0.523194611 0
vt 0.460664183 0.89087528 0
vt 0.46344623 0.906647682 0
vt 0.35938555 0.931018412 0
vt 0.901575804 0.124256685 0
vt 0.914745331 0.115964852 0
vt 0.967445552 0.254924268 0
vt 0.0527002327 0.515436113 0
vt 0.0650924519 0.523194611 0
vt 0.0171671771 0.655388832 0
vt 0.741207361 0.513784528 0
vt 0.758633494 0.51431787 0
vt 0.739292383 0.646402001 0
vt 0.797879875 0.531555474 0
vt 0.811264098 0.53013885 0
vt 0.806960642 0.694553137 0
vt 0 0.654395521 0
vt 0.0171671771 0.655388832 0
vt 0.0547115654 0.808452785 0
vt 0.722931385 0.645978749 0
vt 0.739292383 0.646402001 0
vt 0.746907055 0.805969179 0
vt 0.00374902016 0.969060123 0
vt 0 0.952364683 0
vt 0.157000527 0.9509238 0
vt 0.0412374064 0.818809807 0
vt 0.0547115654 0.808452785 0
vt 0.200463727 0.888276756 0
vt 0.728215396 0.893242538 0
vt 0.718490303 0.880514443 0
vt 0.870607257 0.881263494 0
vt 0.155865997 0.968311071 0
vt 0.157000527 0.9509238 0
vt 0.303085774 0.964219928 0
vt 0.198237941 0.902606726 0
vt 0.200463727 0.888276756 0
vt 0.339480251 0.871267438 0
vt 0.30866608 0.364258856 0
vt 0.312026441 0.379565954 0
vt 0.163008973 0.363293976 0
vt 0.30488345 0.980094671 0
vt 0.303085774 0.964219928 0
vt 0.401922226 0.968759716 0
vt 0.864575505 0.847312927 0
vt 0.859732568 0.833180845 0
vt 0.95983237 0.825874448 0
vt 0.169649586 0.347249478 0
vt 0.163008973 0.363293976 0
vt 0.0561467968 0.28080973 0
vt 0.642438114 0.788485706 0
vt 0.632614791 0.7808218 0
vt 0.682577074 0.654618919 0
vt 0.851548314 0.670796216 0
vt 0.834649682 0.668309927 0
vt 0.833962023 0.544973314 0
vt 0.0695498213 0.270659447 0
vt 0.0561467968 0.28080973 0
vt 0 0.149166241 0
vn 0.572621644 0.263810605 -0.776214182
vn 0.572621644 0.263810605 -0.776214182
vn 0.572621703 0.263810605 -0.776214182
vn -0.921614707 -0.36454314 -0.133171231
vn -0.921614707 -0.36454317 -0.133171245
vn -0.921614766 -0.36454317 -0.133171245
vn 0.351392388 0.187063009 0.917349935
vn 0.351392329 0.187062994 0.917349875
vn 0.351392359 0.187063009 0.917349935
vn 0.132884935 0.264788181 -0.955106616
vn 0.132884935 0.264788181 -0.955106676
vn 0.132884935 0.264788181 -0.955106676
vn -0.618173718 -0.748175383 0.241028592
vn -0.618173718 -0.748175323 0.241028592
vn -0.618173778 -0.748175442 0.241028622
vn 0.438020408 0.559930384 0.703289509
vn 0.438020438 0.559930384 0.703289509
vn 0.438020408 0.559930384 0.703289509
vn -0.132598415 -0.0526227877 -0.989772022
vn -0.132598415 -0.0526227877 -0.989771962
vn -0.132598415 -0.0526227877 -0.989771903
vn -0.0760535449 -0.82842505 0.554912269
vn -0.0760535523 -0.828425169 0.554912329
vn -0.0760535523 -0.828425109 0.554912329
vn 0.13108325 0.901039183 0.413455516
vn 0.131083265 0.901039243 0.413455546
vn 0.131083265 0.901039243 0.413455546
vn 0.195509955 -0.405101955 -0.893122852
vn 0.195509925 -0.405101925 -0.893122792
vn 0.195509925 -0.405101925 -0.893122733
vn 0.26582104 -0.512083054 0.816768169
vn 0.26582101 -0.512082994 0.81676811
vn 0.26582101 -0.512082994 0.81676811
vn -0.500266016 0.862066209 0.0810915977
vn -0.500266016 0.862066209 0.0810915977
vn -0.500266016 0.86206615 0.0810915902
vn 0.711984336 -0.223553911 -0.66565901
vn 0.711984396 -0.223553941 -0.66565907
vn 0.711984336 -0.223553926 -0.66565901
vn 0.254805297 -0.0386180729 0.966220975
vn 0.254805297 -0.0386180729 0.966220915
vn 0.254805267 -0.0386180691 0.966220856
vn -0.94899416 0.1894508 -0.252028465
vn -0.948994219 0.189450815 -0.252028495
vn -0.94899416 0.1894508 -0.252028465
vn 0.877306342 0.361671269 -0.315479845
vn 0.877306223 0.361671269 -0.315479845
vn 0.877306283 0.361671299 -0.315479845
vn -0.153347358 -0.229870781 0.961063981
vn -0.153347358 -0.229870796 0.961063981
vn -0.153347373 -0.229870826 0.961064041
vn -0.740465999 -0.213679865 -0.637221336
vn -0.740465999 -0.213679865 -0.637221336
vn -0.740465999 -0.213679865 -0.637221336
vn 0.73959136 0.670924664 0.0535234921
vn 0.7395913 0.670924604 0.0535234883
vn 0.73959142 0.670924664 0.0535234958
vn -0.452920645 -0.305337161 0.837634802
vn -0.452920645 -0.305337161 0.837634802
vn -0.452920616 -0.305337131 0.837634802
vn -0.246702224 -0.433614433 -0.866669774
vn -0.246702239 -0.433614463 -0.866669834
vn -0.246702209 -0.433614403 -0.866669774
vn -0.045817107 0.917477608 0.395140022
vn -0.045817107 0.917477667 0.395140022
vn -0.045817107 0.917477608 0.395140022
vn 0.172704324 -0.840761423 0.513121247
vn 0.172704324 -0.840761423 0.513121307
vn 0.172704339 -0.840761364 0.513121307
vn -0.0871909633 -0.0547777601 -0.994684458
vn -0.0871909708 -0.0547777638 -0.994684458
vn -0.0871909708 -0.0547777638 -0.994684458
vn -0.34739992 0.551546633 0.75835979
vn -0.34739992 0.551546633 0.75835979
vn -0.34739992 0.551546633 0.75835973
vn 0.623720825 -0.766132295 0.15496324
vn 0.623720765 -0.766132236 0.15496324
vn 0.623720884 -0.766132355 0.15496324
vn -0.227749318 0.264090329 -0.937222779
vn -0.227749318 0.264090329 -0.937222779
vn -0.227749318 0.264090329 -0.937222719
vn -0.283385247 0.0647941157 0.956814766
vn -0.283385277 0.0647941157 0.956814706
vn -0.283385277 0.0647941157 0.956814766
vn 0.971469045 -0.0794693828 -0.223455936
vn 0.971468985 -0.0794693753 -0.223455921
vn 0.971468985 -0.0794693828 -0.223455936
vn -0.696805179 0.14613083 -0.702216625
vn -0.696805239 0.14613083 -0.702216625
vn -0.696805239 0.14613083 -0.702216625
vn 0.391315013 -0.112046659 0.913410246
vn 0.391314983 -0.112046652 0.913410246
vn 0.391314983 -0.112046652 0.913410187
vn -0.987344623 0.0876633376 -0.132158354
vn -0.987344503 0.0876633301 -0.132158354
vn -0.987344563 0.087663345 -0.132158354
vn 0.622213483 -0.111592896 -0.77485311
vn 0.622213483 -0.111592904 -0.77485311
vn 0.622213483 -0.111592904 -0.77485311
vn -0.474302232 0.525246024 -0.706508338
vn -0.474302202 0.525246024 -0.706508279
vn -0.474302202 0.525246024 -0.706508279
vn 0.568482935 -0.79512471 -0.211196214
vn 0.568482935 -0.79512471 -0.211196214
vn 0.568482995 -0.795124769 -0.211196244
vn -0.169624925 0.260555655 0.950440943
vn -0.16962494 0.260555655 0.950441003
vn -0.16962494 0.260555655 0.950441003
vn -0.156899616 0.292768866 -0.943222642
vn -0.156899616 0.292768836 -0.943222582
vn -0.156899616 0.292768866 -0.943222642
vn 0.11920993 -0.972418904 0.200475872
vn 0.119209938 -0.972418964 0.200475886
vn 0.119209923 -0.972418845 0.200475872
vn -0.0208026152 0.68426162 0.728939831
vn -0.0208026152 0.68426162 0.728939831
vn -0.0208026133 0.68426156 0.728939831
vn 0.0504832193 -0.104828671 -0.99320817
vn 0.0504832193 -0.104828686 -0.99320817
vn 0.0504832193 -0.104828678 -0.99320811
vn -0.6945104 -0.521547556 0.495624304
vn -0.69451046 -0.521547556 0.495624304
vn -0.69451046 -0.521547556 0.495624334
vn 0.610088944 0.680103779 0.406510025
vn 0.610088944 0.680103779 0.406509995
vn 0.610088944 0.680103779 0.406509966
vn -0.498109907 -0.0340997353 -0.866443157
vn -0.498109877 -0.0340997353 -0.866443157
vn -0.498109877 -0.0340997316 -0.866443098
vn -0.465918303 -0.284733921 0.837762892
vn -0.465918362 -0.284733921 0.837762892
vn -0.465918332 -0.284733951 0.837762892
vn 0.925180256 0.375841439 0.0527707785
vn 0.925180256 0.375841409 0.0527707785
vn 0.925180197 0.375841409 0.0527707748
vn -0.766526759 0.176090091 -0.617599308
vn -0.766526818 0.176090106 -0.617599368
vn -0.766526818 0.176090106 -0.617599308
vn -0.176173851 0.115050517 0.977612436
vn -0.176173851 0.115050524 0.977612555
vn -0.176173866 0.115050517 0.977612495
vn 0.914945543 -0.210675746 -0.344224334
vn 0.914945543 -0.210675761 -0.344224334
vn 0.914945543 -0.210675746 -0.344224334
vn -0.450651079 0.849072874 -0.275660992
vn -0.450651079 0.849072754 -0.275660962
vn -0.450651079 0.849072814 -0.275660962
vn 0.135717362 -0.195482001 0.971271157
vn 0.135717362 -0.195481986 0.971271038
vn 0.135717377 -0.195481986 0.971271157
vn 0.38356933 -0.655980289 -0.650049508
vn 0.3835693 -0.655980289 -0.650049508
vn 0.38356933 -0.655980289 -0.650049567
vn 0.154896617 0.986888945 0.0453571938
vn 0.154896617 0.986888945 0.0453571901
vn 0.154896602 0.986888885 0.0453571863
vn 0.0377067626 -0.556482077 0.8300035
vn 0.0377067626 -0.556482077 0.83000356
vn 0.0377067626 -0.556482077 0.8300035
vn -0.120206892 -0.466088742 -0.876533866
vn -0.120206892 -0.466088712 -0.876533866
vn -0.1202069 -0.466088772 -0.876533866
vn 0.605958819 0.699832082 0.378218174
vn 0.60595876 0.699832082 0.378218114
vn 0.605958819 0.699832082 0.378218144
vn -0.465955943 -0.66469568 0.584007442
vn -0.465955913 -0.66469568 0.584007382
vn -0.465955913 -0.66469574 0.584007502
vn -0.0694258362 -0.0792753622 -0.994432271
vn -0.0694258362 -0.0792753622 -0.994432211
vn -0.0694258362 -0.0792753622 -0.994432271
vn 0.665398955 0.261776268 0.699083328
vn 0.665398955 0.261776268 0.699083328
vn 0.665398896 0.261776239 0.699083269
vn -0.882352412 -0.401208431 0.245939285
vn -0.882352352 -0.401208431 0.24593927
vn -0.882352293 -0.401208401 0.245939255
vn 0.275070727 0.0784707442 -0.95821631
vn 0.275070697 0.0784707442 -0.95821625
vn 0.275070727 0.0784707516 -0.95821631
g Ring
f 1/1/1 2/2/2 5/3/3
f 2/4/4 3/5/5 6/6/6
f 3/7/7 1/8/8 4/9/9
f 4/10/10 5/11/11 8/12/12
f 5/13/13 6/14/14 9/15/15
f 6/16/16 4/17/17 7/18/18
f 7/19/19 8/20/20 11/21/21
f 8/22/22 9/23/23 12/24/24
f 9/25/25 7/26/26 10/27/27
f 10/28/28 11/29/29 14/30/30
f 11/31/31 12/32/32 15/33/33
f 12/34/34 10/35/35 13/36/36
f 13/37/37 14/38/38 17/39/39
f 14/40/40 15/41/41 18/42/42
f 15/43/43 13/44/44 16/45/45
f 16/46/46 17/47/47 20/48/48
f 17/49/49 18/50/50 21/51/51
f 18/52/52 16/53/53 19/54/54
f 19/55/55 20/56/56 23/57/57
f 20/58/58 21/59/59 24/60/60
f 21/61/61 19/62/62 22/63/63
f 22/64/64 23/65/65 26/66/66
f 23/67/67 24/68/68 27/69/69
f 24/70/70 22/71/71 25/72/72
f 25/73/73 26/74/74 29/75/75
f 26/76/76 27/77/77 30/78/78
f 27/79/79 25/80/80 28/81/81
f 28/82/82 29/83/83 1/84/84
f 29/85/85 30/86/86 2/87/87
f 30/88/88 28/89/89 3/90/90
f 28/91/91 1/92/92 3/93/93
f 30/94/94 3/95/95 2/96/96
f 29/97/97 2/98/98 1/99/99
f 28/100/100 30/101/101 27/102/102
f 30/103/103 29/104/104 26/105/105
f 29/106/106 28/107/107 25/108/108
f 25/109/109 27/110/110 24/111/111
f 27/112/112 26/113/113 23/114/114
f 26/115/115 25/116/116 22/117/117
f 22/118/118 24/119/119 21/120/120
f 24/121/121 23/122/122 20/123/123
f 23/124/124 22/125/125 19/126/126
f 19/127/127 21/128/128 18/129/129
f 21/130/130 20/131/131 17/132/132
f 20/133/133 19/134/134 16/135/135
f 16/136/136 18/137/137 15/138/138
f 18/139/139 17/140/140 14/141/141
f 17/142/142 16/143/143 13/144/144
f 13/145/145 15/146/146 12/147/147
f 15/148/148 14/149/149 11/150/150
f 14/151/151 13/152/152 10/153/153
f 10/154/154 12/155/155 9/156/156
f 12/157/157 11/158/158 8/159/159
f 11/160/160 10/161/161 7/162/162
f 7/163/163 9/164/164 6/165/165
f 9/166/166 8/167/167 5/168/168
f 8/169/169 7/170/170 4/171/171
f 4/172/172 6/173/173 3/174/174
f 6/175/175 5/176/176 2/177/177
f 5/178/178 4/179/179 1/180/180
