# File exported by Houdini 15.5.565 (www.sidefx.com)
# 30 points
# 180 vertices
# 60 primitives
# Bounds: [-1.06678402, -1.02233088, -0.0866083205] to [1.03837204, 0.953929424, 0.0918908864]
g 
v 1.03837204 -0.0560413077 0.0277705956
v 0.977232575 -0.0567817502 -0.00480868854
v 0.979646266 -0.0511202142 0.0641994327
v 0.908698022 0.539056063 -0.0476079658
v 0.850028753 0.502599418 -0.0529771149
v 0.875839651 0.517689288 0.00952161476
v 0.362351716 0.953929424 0.0247567426
v 0.342603326 0.890414178 0.0441425927
v 0.361743212 0.936822832 0.0918908864
v -0.297663003 0.932479739 0.0229032747
v -0.28557393 0.879493117 0.0658715144
v -0.303485781 0.941374063 0.0913648382
v -0.8148821 0.624664783 -0.0422001742
v -0.79507488 0.600185096 0.0195122156
v -0.847764194 0.64497453 0.0153000802
v -1.00823927 0.0355383344 -0.0866083205
v -1.00548589 0.0370417573 -0.0173973478
v -1.06678402 0.0344069675 -0.0495781153
v -0.754213214 -0.524002492 -0.00402698293
v -0.773775816 -0.53610146 0.0613252893
v -0.809315324 -0.563993096 0.00879910029
v -0.296907455 -0.909295678 -0.0287648831
v -0.314049959 -0.952082098 0.0229599234
v -0.323744506 -0.97160697 -0.0428032652
v 0.270917088 -0.962042093 0.00110915361
v 0.285156041 -1.02233088 0.0321334936
v 0.288255781 -1.01731324 -0.0368970446
v 0.819342554 -0.572519243 0.0791959614
v 0.875819147 -0.612033725 0.0861957371
v 0.853115559 -0.594938755 0.0230110213
vt 0 0.518955231 0
vt 0.01378599 0.518788278 0
vt 0.0424684547 0.644919932 0
vt 0.774773359 0.238313437 0
vt 0.790333629 0.239590034 0
vt 0.778004646 0.367847651 0
vt 0.731902599 0.21899277 0
vt 0.745144308 0.21788314 0
vt 0.715904891 0.352068245 0
vt 0.0292394571 0.653140306 0
vt 0.0424684547 0.644919932 0
vt 0.156884924 0.732366085 0
vt 0.243285015 0.765455604 0
vt 0.249104962 0.779548109 0
vt 0.133184284 0.798121035 0
vt 0.820827007 0.770365059 0
vt 0.828236043 0.783246934 0
vt 0.705043495 0.766929805 0
vt 0.15243198 0.74668777 0
vt 0.156884924 0.732366085 0
vt 0.298529059 0.729903579 0
vt 0.145682946 0.919747293 0
vt 0.149998695 0.93051374 0
vt 0 0.930395126 0
vt 0.704906285 0.751792133 0
vt 0.705043495 0.766929805 0
vt 0.556220531 0.767347753 0
vt 0.301254928 0.741851211 0
vt 0.298529059 0.729903579 0
vt 0.413413525 0.666924 0
vt 0.608331919 0.71907109 0
vt 0.604293048 0.73302424 0
vt 0.481566846 0.666190803 0
vt 0.55490756 0.751910746 0
vt 0.556220531 0.767347753 0
vt 0.439595759 0.782027543 0
vt 0.971218824 0.261734575 0
vt 0.957303643 0.256214768 0
vt 0.96562618 0.129234806 0
vt 0.493447453 0.656091511 0
vt 0.481566846 0.666190803 0
vt 0.432181329 0.528517425 0
vt 0.835461676 0.254385769 0
vt 0.822496295 0.249806255 0
vt 0.812482893 0.116967477 0
vt 0.981232166 0.128895804 0
vt 0.96562618 0.129234806 0
vt 0.9478755 0 0
vt 0.446003079 0.529111505 0
vt 0.432181329 0.528517425 0
vt 0.490236491 0.393587589 0
vt 0.425291926 0.237146422 0
vt 0.412091047 0.237401515 0
vt 0.354812115 0.111233838 0
vt 0.308802396 0.780191422 0
vt 0.304391325 0.765455544 0
vt 0.408052295 0.774106324 0
vt 0.771925688 0.0981996581 0
vt 0.763912141 0.0919105336 0
vt 0.873400688 0 0
vt 0.367236793 0.102216579 0
vt 0.354812115 0.111233838 0
vt 0.251696885 0.0243562665 0
vt 0.582181513 0.863601446 0
vt 0.578316152 0.851938307 0
vt 0.713427663 0.849869788 0
vt 0.535842299 0.816843331 0
vt 0.533656359 0.802014709 0
vt 0.671652794 0.803346515 0
vt 0.257748187 0.0103060473 0
vt 0.251696885 0.0243562665 0
vt 0.123661332 0.0124627771 0
vt 0.572095275 0.0135941757 0
vt 0.575305939 0 0
vt 0.708491206 0.0925155729 0
vt 0.67095387 0.818911791 0
vt 0.671652794 0.803346515 0
vt 0.799019814 0.816854835 0
vt 0.119751744 0 0
vt 0.123661332 0.0124627771 0
vt 0 0.100294068 0
vt 0.695756614 0.101425469 0
vt 0.708491206 0.0925155729 0
vt 0.745144308 0.21788314 0
vt 0.812722504 0.508880675 0
vt 0.826969683 0.512735367 0
vt 0.833242595 0.634081304 0
vt 0.781046271 0.116967477 0
vt 0.793715119 0.122022726 0
vt 0.790333629 0.239590034 0
vt 0.695756614 0.101425469 0
vt 0.745144308 0.21788314 0
vt 0.731902599 0.21899277 0
vt 0.781046271 0.116967477 0
vt 0.790333629 0.239590034 0
vt 0.774773359 0.238313437 0
vt 0.0366531275 0.393587649 0
vt 0.01378599 0.518788278 0
vt 0 0.518955231 0
vt 0.55193305 0.849869788 0
vt 0.559548378 0.862538636 0
vt 0.432181358 0.876046896 0
vt 0.799019814 0.816854835 0
vt 0.804139137 0.831101954 0
vt 0.67095387 0.818911791 0
vt 0.708491206 0.0925155729 0
vt 0.695756614 0.101425469 0
vt 0.572095275 0.0135941757 0
vt 0.123661332 0.0124627771 0
vt 0.119751744 0 0
vt 0.257748187 0.0103060473 0
vt 0.671652794 0.803346515 0
vt 0.67095387 0.818911791 0
vt 0.535842299 0.816843331 0
vt 0.575305939 0 0
vt 0.572095275 0.0135941757 0
vt 0.444059759 0.0254876651 0
vt 0.251696885 0.0243562665 0
vt 0.257748187 0.0103060473 0
vt 0.367236793 0.102216579 0
vt 0.533656359 0.802014709 0
vt 0.535842299 0.816843331 0
vt 0.432181358 0.825494111 0
vt 0.867993772 0.393587619 0
vt 0.871859133 0.403235286 0
vt 0.768743873 0.490112841 0
vt 0.354812115 0.111233838 0
vt 0.367236793 0.102216579 0
vt 0.425291926 0.237146422 0
vt 0.27377966 0.765455604 0
vt 0.285623521 0.771744728 0
vt 0.267872781 0.900979459 0
vt 0.9478755 0 0
vt 0.962611377 0.00272812741 0
vt 0.981232166 0.128895804 0
vt 0.412091047 0.237401515 0
vt 0.425291926 0.237146422 0
vt 0.375906408 0.374819815 0
vt 0.432181329 0.528517425 0
vt 0.446003079 0.529111505 0
vt 0.493447453 0.656091511 0
vt 0.96562618 0.129234806 0
vt 0.981232166 0.128895804 0
vt 0.971218824 0.261734575 0
vt 0.439595759 0.782027543 0
vt 0.432181358 0.769062161 0
vt 0.55490756 0.751910746 0
vt 0.481566846 0.666190803 0
vt 0.493447453 0.656091511 0
vt 0.608331919 0.71907109 0
vt 0.816949129 0.287068754 0
vt 0.812482953 0.273153573 0
vt 0.929107666 0.287833422 0
vt 0.556220531 0.767347753 0
vt 0.55490756 0.751910746 0
vt 0.704906285 0.751792133 0
vt 0.604293048 0.73302424 0
vt 0.608331919 0.71907109 0
vt 0.749976039 0.721533597 0
vt 0.298529059 0.729903579 0
vt 0.301254928 0.741851211 0
vt 0.15243198 0.74668777 0
vt 0.705043495 0.766929805 0
vt 0.704906285 0.751792133 0
vt 0.820827007 0.770365059 0
vt 0.00431574415 0.863366127 0
vt 0 0.852901697 0
vt 0.114416473 0.765455604 0
vt 0.156884924 0.732366085 0
vt 0.15243198 0.74668777 0
vt 0.0292394571 0.653140306 0
vt 0.79395473 0.641956151 0
vt 0.781072855 0.637138307 0
vt 0.768743873 0.508880675 0
vt 0.778004646 0.367847651 0
vt 0.763912141 0.36444509 0
vt 0.774773359 0.238313437 0
vt 0.0424684547 0.644919932 0
vt 0.0292394571 0.653140306 0
vt 0 0.518955231 0
vn 0.469753891 0.0308510344 -0.882258236
vn 0.469753832 0.0308510289 -0.882258177
vn 0.469753861 0.0308510326 -0.882258236
vn -0.983399928 -0.174783751 0.0487358198
vn -0.983399868 -0.174783736 0.0487358123
vn -0.983399928 -0.174783736 0.048735816
vn 0.527531505 0.218923986 0.820842803
vn 0.527531505 0.218923971 0.820842743
vn 0.527531505 0.218923971 0.820842743
vn -0.0346187875 0.199923113 -0.979199827
vn -0.0346187837 0.199923098 -0.979199827
vn -0.0346187837 0.199923098 -0.979199827
vn -0.5392434 -0.740311861 0.401441216
vn -0.5392434 -0.740311801 0.401441157
vn -0.53924334 -0.740311801 0.401441187
vn 0.549738705 0.627841592 0.551001191
vn 0.549738705 0.627841532 0.551001191
vn 0.549738705 0.627841532 0.551001191
vn -0.028220756 -0.283767909 -0.958477616
vn -0.028220756 -0.283767909 -0.958477616
vn -0.028220756 -0.283767939 -0.958477616
vn -0.00545056071 -0.715991259 0.698087931
vn -0.00545056118 -0.715991259 0.69808799
vn -0.00545056071 -0.715991199 0.69808799
vn -0.0321707353 0.968603551 0.246520311
vn -0.0321707316 0.968603492 0.246520281
vn -0.0321707316 0.968603432 0.246520281
vn 0.36296615 -0.535542428 -0.762528598
vn 0.36296618 -0.535542488 -0.762528658
vn 0.36296615 -0.535542488 -0.762528598
vn 0.0679067671 -0.363168687 0.929245591
vn 0.0679067522 -0.363168657 0.929245412
vn 0.0679067671 -0.363168687 0.929245532
vn -0.491074026 0.857545018 -0.153176486
vn -0.491073996 0.857544959 -0.153176486
vn -0.491073996 0.857544899 -0.153176472
vn 0.8680197 -0.298308343 -0.396930814
vn 0.8680197 -0.298308343 -0.396930784
vn 0.86801964 -0.298308313 -0.396930814
vn -0.129160881 -0.0588510893 0.989875793
vn -0.129160881 -0.0588510856 0.989875734
vn -0.129160881 -0.0588510856 0.989875734
vn -0.779727101 0.297445029 -0.550955713
vn -0.779727101 0.297445029 -0.550955653
vn -0.779727101 0.297444999 -0.550955713
vn 0.928295314 0.369117111 -0.0449479856
vn 0.928295374 0.369117141 -0.0449479856
vn 0.928295374 0.369117111 -0.0449479893
vn -0.458198726 -0.111113451 0.881877303
vn -0.458198756 -0.111113459 0.881877422
vn -0.458198756 -0.111113451 0.881877363
vn -0.497308522 -0.343361497 -0.796735287
vn -0.497308522 -0.343361467 -0.796735227
vn -0.497308522 -0.343361497 -0.796735287
vn 0.649848521 0.688490868 0.321989655
vn 0.649848461 0.688490868 0.321989655
vn 0.649848521 0.688490868 0.321989655
vn -0.454365879 -0.621995807 0.637709022
vn -0.454365879 -0.621995807 0.637709022
vn -0.454365909 -0.621995866 0.637709081
vn -0.147488669 -0.111959741 -0.982706487
vn -0.147488683 -0.111959741 -0.982706547
vn -0.147488669 -0.111959741 -0.982706547
vn 0.0785760432 0.755215049 0.650750339
vn 0.0785760432 0.755215049 0.650750399
vn 0.0785760507 0.755215049 0.650750339
vn -0.0740078464 -0.952982903 0.293847382
vn -0.0740078539 -0.952982962 0.293847412
vn -0.0740078464 -0.952982962 0.293847382
vn 0.069238767 0.190784633 -0.979187012
vn 0.069238767 0.190784633 -0.979187012
vn 0.069238767 0.190784633 -0.979187071
vn -0.334686846 0.367480278 0.867722929
vn -0.334686846 0.367480278 0.867722869
vn -0.334686846 0.367480248 0.867722869
vn 0.600670278 -0.798891842 -0.0310966168
vn 0.600670278 -0.798891902 -0.0310966186
vn 0.600670278 -0.798891842 -0.0310966186
vn -0.235909536 0.499278426 -0.833707333
vn -0.235909522 0.499278396 -0.833707273
vn -0.235909507 0.499278396 -0.833707273
vn -0.0415358506 0.116420388 0.992331088
vn -0.0415358543 0.116420411 0.992331147
vn -0.0415358543 0.116420403 0.992331088
vn 0.895571291 -0.226349607 -0.383037597
vn 0.895571411 -0.226349622 -0.383037657
vn 0.895571291 -0.226349607 -0.383037597
vn -0.791971862 0.227191225 -0.56671381
vn -0.791971922 0.227191254 -0.566713929
vn -0.791971982 0.227191269 -0.566713929
vn 0.514282703 -0.133750662 0.847126961
vn 0.514282703 -0.133750662 0.847126961
vn 0.514282703 -0.133750662 0.847126961
vn -0.974125445 0.22547105 0.0155738555
vn -0.974125445 0.225471035 0.0155738546
vn -0.974125385 0.22547102 0.0155738555
vn 0.460347801 -0.224834189 -0.858795404
vn 0.460347801 -0.224834204 -0.858795345
vn 0.460347831 -0.224834219 -0.858795404
vn -0.460254043 0.694038808 -0.553603053
vn -0.460254043 0.694038868 -0.553603053
vn -0.460254073 0.694038868 -0.553603113
vn 0.547996581 -0.736687422 -0.39622131
vn 0.547996581 -0.736687481 -0.39622134
vn 0.54799664 -0.736687481 -0.39622131
vn -0.131918669 -0.0129651139 0.991175711
vn -0.131918669 -0.0129651139 0.991175711
vn -0.131918684 -0.0129651157 0.991175771
vn 0.0509365276 0.576666892 -0.815389872
vn 0.0509365276 0.576666892 -0.815389991
vn 0.0509365276 0.576666892 -0.815389931
vn -0.114926785 -0.990373671 -0.0771482289
vn -0.114926778 -0.990373671 -0.0771482289
vn -0.114926793 -0.990373731 -0.0771482363
vn -0.00437446637 0.456744492 0.889587164
vn -0.00437446637 0.456744492 0.889587164
vn -0.00437446637 0.456744492 0.889587164
vn 0.0595744811 0.194907248 -0.979010761
vn 0.0595744774 0.194907233 -0.979010701
vn 0.0595744848 0.194907248 -0.97901082
vn -0.624740064 -0.718609989 0.305449665
vn -0.624740064 -0.718609989 0.305449635
vn -0.624740064 -0.718609989 0.305449635
vn 0.514339447 0.569291472 0.641375244
vn 0.514339387 0.569291472 0.641375244
vn 0.514339447 0.569291472 0.641375244
vn -0.12114995 -0.147882462 -0.981556654
vn -0.12114995 -0.147882462 -0.981556654
vn -0.121149957 -0.147882462 -0.981556654
vn -0.750743866 -0.21785216 0.623637795
vn -0.750743806 -0.217852145 0.623637736
vn -0.750743926 -0.21785216 0.623637795
vn 0.839869678 0.430150479 0.331043124
vn 0.839869678 0.430150479 0.331043065
vn 0.839869738 0.430150509 0.331043094
vn -0.518146515 0.272029996 -0.810878515
vn -0.518146515 0.272029996 -0.810878456
vn -0.518146515 0.272029996 -0.810878396
vn -0.465582132 0.116457954 0.877308846
vn -0.465582162 0.116457969 0.877308846
vn -0.465582162 0.116457969 0.877308905
vn 0.950366318 -0.309576631 -0.0310830437
vn 0.950366259 -0.309576601 -0.0310830399
vn 0.950366318 -0.309576631 -0.0310830418
vn -0.363772362 0.793287933 -0.488225251
vn -0.363772392 0.793287933 -0.488225281
vn -0.363772362 0.793287873 -0.488225251
vn -0.0863324255 -0.00787057914 0.996235251
vn -0.0863324255 -0.00787057914 0.996235371
vn -0.086332418 -0.00787057821 0.996235251
vn 0.497335225 -0.73983717 -0.453098714
vn 0.497335255 -0.739837289 -0.453098774
vn 0.497335196 -0.739837229 -0.453098744
vn 0.00688635698 0.991717398 -0.128255293
vn 0.00688635651 0.991717279 -0.128255278
vn 0.00688635744 0.991717398 -0.128255293
vn 0.0385443456 -0.371073604 0.927803159
vn 0.0385443456 -0.371073633 0.927803218
vn 0.0385443419 -0.371073604 0.927803159
vn 0.0225509964 -0.626586914 -0.779025316
vn 0.0225509927 -0.626586854 -0.779025257
vn 0.0225509927 -0.626586854 -0.779025257
vn 0.638323784 0.744528234 0.195500508
vn 0.638323784 0.744528234 0.195500523
vn 0.638323784 0.744528174 0.195500523
vn -0.32696408 -0.608816028 0.722798288
vn -0.32696408 -0.608816087 0.722798407
vn -0.32696408 -0.608816087 0.722798347
vn -0.276886165 -0.200722188 -0.939704537
vn -0.276886165 -0.200722188 -0.939704597
vn -0.276886135 -0.200722173 -0.939704537
vn 0.814796209 0.200972363 0.543798983
vn 0.814796209 0.200972363 0.543798983
vn 0.81479615 0.200972334 0.543798923
vn -0.896073937 -0.168400705 0.410722196
vn -0.896073937 -0.16840069 0.410722166
vn -0.896073878 -0.16840069 0.410722136
vn 0.147630885 -0.0925588608 -0.984702051
vn 0.147630855 -0.0925588384 -0.984701991
vn 0.147630855 -0.0925588384 -0.984701872
g Ring
f 1/1/1 2/2/2 5/3/3
f 2/4/4 3/5/5 6/6/6
f 3/7/7 1/8/8 4/9/9
f 4/10/10 5/11/11 8/12/12
f 5/13/13 6/14/14 9/15/15
f 6/16/16 4/17/17 7/18/18
f 7/19/19 8/20/20 11/21/21
f 8/22/22 9/23/23 12/24/24
f 9/25/25 7/26/26 10/27/27
f 10/28/28 11/29/29 14/30/30
f 11/31/31 12/32/32 15/33/33
f 12/34/34 10/35/35 13/36/36
f 13/37/37 14/38/38 17/39/39
f 14/40/40 15/41/41 18/42/42
f 15/43/43 13/44/44 16/45/45
f 16/46/46 17/47/47 20/48/48
f 17/49/49 18/50/50 21/51/51
f 18/52/52 16/53/53 19/54/54
f 19/55/55 20/56/56 23/57/57
f 20/58/58 21/59/59 24/60/60
f 21/61/61 19/62/62 22/63/63
f 22/64/64 23/65/65 26/66/66
f 23/67/67 24/68/68 27/69/69
f 24/70/70 22/71/71 25/72/72
f 25/73/73 26/74/74 29/75/75
f 26/76/76 27/77/77 30/78/78
f 27/79/79 25/80/80 28/81/81
f 28/82/82 29/83/83 1/84/84
f 29/85/85 30/86/86 2/87/87
f 30/88/88 28/89/89 3/90/90
f 28/91/91 1/92/92 3/93/93
f 30/94/94 3/95/95 2/96/96
f 29/97/97 2/98/98 1/99/99
f 28/100/100 30/101/101 27/102/102
f 30/103/103 29/104/104 26/105/105
f 29/106/106 28/107/107 25/108/108
f 25/109/109 27/110/110 24/111/111
f 27/112/112 26/113/113 23/114/114
f 26/115/115 25/116/116 22/117/117
f 22/118/118 24/119/119 21/120/120
f 24/121/121 23/122/122 20/123/123
f 23/124/124 22/125/125 19/126/126
f 19/127/127 21/128/128 18/129/129
f 21/130/130 20/131/131 17/132/132
f 20/133/133 19/134/134 16/135/135
f 16/136/136 18/137/137 15/138/138
f 18/139/139 17/140/140 14/141/141
f 17/142/142 16/143/143 13/144/144
f 13/145/145 15/146/146 12/147/147
f 15/148/148 14/149/149 11/150/150
f 14/151/151 13/152/152 10/153/153
f 10/154/154 12/155/155 9/156/156
f 12/157/157 11/158/158 8/159/159
f 11/160/160 10/161/161 7/162/162
f 7/163/163 9/164/164 6/165/165
f 9/166/166 8/167/167 5/168/168
f 8/169/169 7/170/170 4/171/171
f 4/172/172 6/173/173 3/174/174
f 6/175/175 5/176/176 2/177/177
f 5/178/178 4/179/179 1/180/180
